<?xml version="1.0"?>
<svg xmlns="http://www.w3.org/2000/svg" viewBox="0 0 378.23 407.19" width="378.23" height="407.19" role="img" aria-label="Padel Lab — monograma PL"><g fill="#EAF1EC"><path d="M219.35,45.82c-8.62-14.52-20.57-25.78-35.84-33.8-7.84-4.11-16.3-7.15-25.37-9.15,0,.42.03.83.03,1.25,0,19.32-4.03,37.72-11.26,54.41,4.56,1.91,8.69,4.45,12.32,7.7,8.77,7.87,13.16,18.6,13.16,32.21v4.54c0,13.61-4.39,24.35-13.16,32.21-8.78,7.87-20.27,11.8-34.48,11.8H59.89v-11.18c-12.4,3.69-25.51,5.7-39.09,5.7-7.07,0-14.01-.54-20.79-1.57v177.64h59.89v-116.14h70.77c19.35,0,36.67-4.01,51.95-12.02,15.27-8.01,27.37-19.35,36.29-34.03,8.92-14.67,13.38-31.83,13.38-51.49v-6.35c0-19.96-4.31-37.2-12.93-51.72Z"></path><path d="M0,0v128.88c6.77,1.12,13.71,1.74,20.79,1.74,13.64,0,26.77-2.2,39.09-6.21V54.44h64.88c4.1,0,7.95.37,11.6,1.02,7-15.7,10.93-33.07,10.93-51.34,0-1.04-.05-2.06-.08-3.1-5.33-.66-10.83-1.03-16.55-1.03H0Z"></path></g><g fill="#14A07A"><path d="M244.32,352.75v-202.15c-2.16,6.88-5.06,13.34-8.73,19.38-8.92,14.67-21.03,26.02-36.29,34.03-3.3,1.73-6.72,3.24-10.21,4.6v198.59h189.14v-54.44h-133.9Z"></path></g></svg>